<?xml version="1.0" encoding="UTF-8" standalone="no"?><!DOCTYPE svg PUBLIC "-//W3C//DTD SVG 1.1//EN" "http://www.w3.org/Graphics/SVG/1.1/DTD/svg11.dtd"><svg width="100%" height="100%" viewBox="0 0 119 44" version="1.1" xmlns="http://www.w3.org/2000/svg" xmlns:xlink="http://www.w3.org/1999/xlink" xml:space="preserve" xmlns:serif="http://www.serif.com/" style="fill-rule:evenodd;clip-rule:evenodd;stroke-linejoin:round;stroke-miterlimit:2;"><g><rect id="_12_06_beta" serif:id="12_06_beta" x="0" y="0" width="118.421" height="43.555" style="fill:none;"/><path d="M22.726,2.851c10.445,0 18.926,8.481 18.926,18.927c0,10.445 -8.481,18.926 -18.926,18.926c-10.446,0 -18.926,-8.481 -18.926,-18.926c0,-10.446 8.48,-18.927 18.926,-18.927Zm-2.172,24.085l-4.334,0l-0.578,5.686l3.515,0c0.404,0 0.744,-0.302 0.793,-0.703l0.604,-4.983Zm6.773,-7.183l-10.376,0l-0.474,4.554l9.673,0c0.34,0 0.627,-0.253 0.67,-0.59l0.507,-3.964Zm4.095,-7.466l-13.27,0c-0.236,0 -0.434,0.178 -0.458,0.413c-0.117,1.122 -0.432,4.141 -0.432,4.141l12.983,0c0.34,0 0.627,-0.253 0.67,-0.591l0.507,-3.963Z" style="fill:#01ffc2;"/><path d="M61.516,11.678l4.043,0l-1.113,20.199l-4.314,0l-5.668,-12.242l-0.675,12.242l-4.044,0l1.113,-20.199l4.315,0l5.668,12.242l0.675,-12.242Z" style="fill:#fff;fill-rule:nonzero;"/><path d="M79.806,15.868l-7.593,0l-0.23,4.176l6.413,0l-0.23,4.19l-6.414,0l-0.421,7.643l-4.315,0l1.113,-20.199l11.907,0l-0.23,4.19Z" style="fill:#fff;fill-rule:nonzero;"/><path d="M80.527,31.877l1.113,-20.199l4.315,0l-1.114,20.199l-4.314,0Z" style="fill:#fff;fill-rule:nonzero;"/><path d="M91.278,31.877l0.877,-15.913l-5.046,0l0.237,-4.286l14.429,0l-0.236,4.286l-5.057,0l-0.877,15.913l-4.327,0Z" style="fill:#fff;fill-rule:nonzero;"/><path d="M99.867,31.808l0.294,-5.641l1.844,0c0.612,0 1.066,0.127 1.361,0.38c0.296,0.253 0.431,0.628 0.405,1.124c-0.014,0.263 -0.101,0.496 -0.261,0.699c-0.161,0.203 -0.373,0.36 -0.637,0.471c0.301,0.085 0.533,0.247 0.697,0.486c0.165,0.239 0.239,0.523 0.221,0.854c-0.026,0.506 -0.211,0.904 -0.554,1.193c-0.343,0.29 -0.814,0.434 -1.413,0.434l-1.957,0Zm0.881,-2.638l-0.105,2.03l1.228,0c0.346,0 0.624,-0.09 0.833,-0.269c0.21,-0.18 0.323,-0.427 0.339,-0.742c0.036,-0.679 -0.316,-1.019 -1.055,-1.019l-1.24,0Zm0.032,-0.597l1.123,0c0.325,0 0.59,-0.081 0.793,-0.244c0.204,-0.163 0.313,-0.385 0.327,-0.664c0.017,-0.311 -0.062,-0.537 -0.236,-0.678c-0.173,-0.141 -0.444,-0.211 -0.814,-0.211l-1.1,0l-0.093,1.797Z" style="fill:#fff;fill-rule:nonzero;"/><path d="M106.43,31.886c-0.568,0 -1.021,-0.187 -1.358,-0.56c-0.337,-0.373 -0.489,-0.872 -0.456,-1.497l0.006,-0.132c0.022,-0.416 0.121,-0.787 0.297,-1.114c0.175,-0.327 0.411,-0.582 0.706,-0.767c0.295,-0.185 0.609,-0.277 0.942,-0.277c0.545,0 0.959,0.179 1.243,0.538c0.283,0.359 0.408,0.873 0.373,1.542l-0.016,0.299l-2.839,0c-0.011,0.413 0.092,0.747 0.31,1.001c0.218,0.255 0.505,0.382 0.861,0.382c0.254,0 0.471,-0.052 0.652,-0.155c0.181,-0.104 0.341,-0.24 0.482,-0.411l0.42,0.341c-0.379,0.54 -0.92,0.81 -1.623,0.81Zm0.106,-3.758c-0.289,0 -0.537,0.105 -0.744,0.315c-0.208,0.211 -0.344,0.506 -0.41,0.886l2.099,0l0.003,-0.054c-0.002,-0.365 -0.085,-0.647 -0.25,-0.847c-0.165,-0.2 -0.398,-0.3 -0.698,-0.3Z" style="fill:#fff;fill-rule:nonzero;"/><path d="M110.141,26.601l-0.052,1.015l0.782,0l-0.029,0.554l-0.782,0l-0.136,2.603c-0.008,0.168 0.02,0.294 0.085,0.378c0.066,0.084 0.182,0.126 0.35,0.126c0.083,0 0.197,-0.015 0.344,-0.046l-0.03,0.578c-0.192,0.051 -0.376,0.077 -0.555,0.077c-0.32,0 -0.556,-0.097 -0.709,-0.291c-0.153,-0.194 -0.22,-0.469 -0.201,-0.825l0.135,-2.6l-0.763,0l0.029,-0.554l0.763,0l0.053,-1.015l0.716,0Z" style="fill:#fff;fill-rule:nonzero;"/><path d="M114.078,31.808c-0.037,-0.082 -0.063,-0.23 -0.078,-0.441c-0.351,0.346 -0.758,0.519 -1.22,0.519c-0.413,0 -0.746,-0.117 -0.999,-0.351c-0.252,-0.234 -0.369,-0.53 -0.351,-0.889c0.023,-0.437 0.207,-0.776 0.551,-1.017c0.345,-0.241 0.818,-0.362 1.419,-0.362l0.698,0l0.017,-0.33c0.013,-0.25 -0.052,-0.45 -0.194,-0.598c-0.142,-0.149 -0.359,-0.223 -0.651,-0.223c-0.255,0 -0.473,0.065 -0.653,0.194c-0.179,0.129 -0.274,0.285 -0.284,0.469l-0.72,0c0.011,-0.21 0.095,-0.412 0.254,-0.607c0.159,-0.195 0.368,-0.349 0.628,-0.463c0.261,-0.113 0.543,-0.17 0.848,-0.17c0.483,0 0.855,0.121 1.116,0.362c0.262,0.242 0.386,0.574 0.375,0.998l-0.101,1.929c-0.02,0.385 0.014,0.691 0.1,0.918l-0.003,0.062l-0.752,0Zm-1.161,-0.546c0.225,0 0.441,-0.058 0.648,-0.174c0.208,-0.117 0.362,-0.268 0.462,-0.454l0.044,-0.86l-0.561,0c-0.878,0 -1.331,0.257 -1.358,0.771c-0.011,0.225 0.054,0.401 0.198,0.527c0.143,0.127 0.332,0.19 0.567,0.19Z" style="fill:#fff;fill-rule:nonzero;"/></g></svg>